<mxfile host="app.diagrams.net" modified="2023-12-15T17:50:54.737Z" agent="Mozilla/5.0 (Windows NT 10.0; Win64; x64) AppleWebKit/537.36 (KHTML, like Gecko) Chrome/119.0.0.0 Safari/537.36 OPR/105.0.0.0" version="22.1.11" etag="z8L5GHuCjey4IJslp2Lw" type="github">
  <diagram name="Страница — 1" id="mxSVoCDGnoLH2gkQ3ZKH">
    <mxGraphModel>
      <root>
        <mxCell id="0" />
        <mxCell id="1" parent="0" />
      </root>
    </mxGraphModel>
  </diagram>
</mxfile>
